<?xml version="1.0" standalone="no"?>
<!DOCTYPE svg PUBLIC "-//W3C//DTD SVG 20010904//EN"
 "http://www.w3.org/TR/2001/REC-SVG-20010904/DTD/svg10.dtd">
<svg version="1.0" xmlns="http://www.w3.org/2000/svg"
 width="256.000000pt" height="256.000000pt" viewBox="0 0 256.000000 256.000000"
 preserveAspectRatio="xMidYMid meet">

<g transform="translate(0.000000,256.000000) scale(0.100000,-0.100000)"
fill="#000000" stroke="none">
<path d="M115 2323 c-98 -51 -115 -95 -115 -299 0 -172 6 -193 48 -179 28 8
32 32 32 192 0 223 4 227 238 231 l162 4 0 -36 c0 -33 -3 -36 -27 -36 -74 0
-127 -78 -99 -145 26 -61 41 -65 234 -65 l174 0 29 29 c62 63 22 166 -69 178
-41 6 -43 7 -40 37 l3 31 592 3 593 2 0 -35 c0 -32 -3 -35 -27 -35 -74 0 -127
-78 -99 -145 26 -61 41 -65 234 -65 l174 0 29 29 c62 63 22 166 -69 178 -41 6
-43 7 -40 37 l3 31 161 0 c175 0 198 -5 227 -55 15 -26 17 -94 17 -750 l0
-722 -34 -34 -34 -34 -1132 0 -1132 0 -34 34 -34 34 0 475 c0 285 -4 486 -10
501 -10 28 -38 34 -58 14 -9 -9 -12 -174 -12 -680 0 -581 2 -674 15 -706 20
-47 50 -79 97 -103 36 -18 76 -19 1168 -19 1092 0 1132 1 1168 19 47 24 77 56
97 103 13 33 15 148 15 938 0 975 2 940 -53 998 -52 56 -81 62 -285 62 -228 0
-222 3 -222 -113 0 -67 3 -78 22 -91 12 -9 42 -16 66 -16 46 0 64 -19 42 -45
-18 -22 -292 -22 -310 0 -22 27 -4 45 45 45 69 0 85 22 85 113 0 59 -4 77 -18
90 -17 15 -77 17 -654 17 -737 0 -668 12 -668 -113 0 -67 3 -78 22 -91 12 -9
42 -16 66 -16 46 0 64 -19 42 -45 -18 -22 -292 -22 -310 0 -22 27 -4 45 45 45
67 0 85 22 85 108 0 114 4 112 -223 112 -155 -1 -198 -4 -222 -17z m8 -1718
c55 -23 2259 -23 2314 0 19 8 37 15 39 15 11 0 2 -69 -12 -88 -38 -54 6 -52
-1038 -52 -943 0 -966 0 -976 -19 -13 -26 -3 -50 24 -56 11 -3 453 -4 981 -3
898 3 962 4 993 21 l32 18 0 -35 c0 -45 -40 -92 -88 -106 -51 -14 -2173 -14
-2224 0 -48 14 -88 61 -88 106 l0 35 33 -18 c47 -25 205 -25 221 0 8 12 8 22
0 35 -9 13 -30 18 -95 22 -115 7 -159 36 -159 107 0 38 -3 37 43 18z"/>
<path d="M574 1911 c-52 -13 -98 -47 -123 -92 -22 -39 -23 -49 -18 -146 4 -57
13 -118 21 -136 l13 -33 -58 -11 c-68 -13 -109 -39 -141 -91 -20 -32 -23 -53
-26 -148 -6 -167 -36 -154 366 -154 280 0 331 2 350 16 20 14 22 23 22 125 0
69 -5 121 -14 142 -26 62 -111 117 -183 117 -25 0 -27 4 -14 28 18 34 33 208
21 251 -25 92 -126 153 -216 132z m81 -83 c14 -6 25 -15 25 -19 0 -14 -104
-59 -137 -59 -37 0 -42 14 -15 47 30 39 82 52 127 31z m56 -210 c-8 -59 -15
-77 -36 -95 -59 -51 -145 -15 -159 65 -12 76 -11 79 44 85 28 3 74 19 103 34
l52 28 3 -22 c2 -12 -1 -55 -7 -95z m-248 -311 c20 -62 37 -116 37 -120 0 -4
-41 -7 -91 -7 l-91 0 4 89 c2 72 7 93 23 111 19 22 49 38 70 39 6 1 27 -50 48
-112z m106 21 l-1 -93 -29 85 c-16 46 -29 88 -29 92 0 4 14 8 30 8 l30 0 -1
-92z m121 8 c-15 -47 -30 -93 -33 -103 -3 -10 -5 28 -6 85 l-1 102 34 0 35 0
-29 -84z m160 67 c44 -30 49 -44 50 -135 l0 -88 -89 0 -89 0 35 113 c19 61 37
115 40 120 7 12 27 8 53 -10z"/>
<path d="M1126 1898 c-14 -20 -16 -86 -16 -526 0 -328 4 -510 10 -523 12 -21
40 -25 58 -7 9 9 12 141 12 535 0 506 -1 523 -19 533 -26 14 -28 13 -45 -12z"/>
<path d="M1340 1730 c-26 -26 -29 -140 -4 -164 14 -14 71 -16 484 -16 413 0
470 2 484 16 11 11 16 35 16 80 0 112 37 104 -500 104 -447 0 -461 -1 -480
-20z m900 -80 c0 -20 -7 -20 -420 -20 -413 0 -420 0 -420 20 0 20 7 20 420 20
413 0 420 0 420 -20z"/>
<path d="M1336 1454 c-22 -21 -22 -131 0 -162 l15 -22 465 0 c541 0 504 -8
504 103 0 87 -12 97 -118 97 -72 0 -83 -2 -92 -21 -19 -35 12 -59 77 -59 46 0
53 -2 53 -20 0 -20 -7 -20 -420 -20 -413 0 -420 0 -420 20 0 20 7 20 288 20
272 0 290 1 306 19 14 15 15 24 6 40 -10 21 -17 21 -330 21 -276 0 -321 -2
-334 -16z"/>
<path d="M1340 1180 c-16 -16 -20 -33 -20 -81 0 -109 -48 -99 495 -99 417 0
475 2 489 16 11 11 16 35 16 80 0 112 37 104 -500 104 -447 0 -461 -1 -480
-20z m900 -80 c0 -20 -7 -20 -420 -20 -413 0 -420 0 -420 20 0 20 7 20 420 20
413 0 420 0 420 -20z"/>
<path d="M256 1014 c-9 -8 -16 -19 -16 -24 0 -5 7 -16 16 -24 13 -14 59 -16
350 -16 212 0 342 4 355 10 21 12 25 40 7 58 -9 9 -101 12 -354 12 -298 0
-345 -2 -358 -16z"/>
<path d="M249 884 c-9 -11 -10 -20 -2 -32 9 -15 35 -17 195 -20 199 -3 218 2
203 48 -6 19 -14 20 -194 20 -160 0 -191 -2 -202 -16z"/>
</g>
</svg>
